<svg width="93" height="95" viewBox="0 0 93 95" fill="none" xmlns="http://www.w3.org/2000/svg">
<rect width="93" height="95" fill="#E5E5E5"/>
<rect width="93" height="95" fill="#0E430D"/>
<ellipse cx="23.4926" cy="28.3911" rx="13.5" ry="8" transform="rotate(26 23.4926 28.3911)" fill="#260606"/>
<ellipse cx="69.4926" cy="28.3911" rx="13.5" ry="8" transform="rotate(-25 69.4926 28.3911)" fill="#1D0202"/>
<path d="M79 62.8052C79 65.8027 59.2548 77.5 46 77.5C32.7452 77.5 14 65.8027 14 62.8052C14 59.8077 32.7452 67.5 46 67.5C59.2548 67.5 79 59.8077 79 62.8052Z" fill="#EFF318"/>
<path d="M51 49C51 53.4183 49.2091 57 47 57C44.7909 57 43 53.4183 43 49C43 44.5817 44.7909 41 47 41C49.2091 41 51 44.5817 51 49Z" fill="#15E24E"/>
</svg>
